# xmcd
#
# Track frame offsets:
#	150
#	10547
#	20352
#	31417
#	42500
#	53572
#	66710
#	79605
#	92245
#	104210
#	114472
#	126470
#	136842
#	147977
#	163230
#	172585
#	184115
#	195252
#	207767
#	217720
#
# Disc length: 3041 seconds
#
# Revision: 1
# Processed by: cddbd v1.4PL0 Copyright (c) Steve Scherf et al.
# Submitted via: audiograbber 1.81.03
#
DISCID=130bdf14
DTITLE=Jim Reeves - I Can't Stop Loving You - Jim's Romantic Classics
DYEAR=1997
DGENRE=Country
TTITLE0=i heard a heart break last night
TTITLE1=is this me?
TTITLE2=little ole you
TTITLE3=there's always me
TTITLE4=i love you more
TTITLE5=you'll never know
TTITLE6=little ole dime
TTITLE7=i can't stop loving you
TTITLE8=in the misty moonlight
TTITLE9=you're the only good thing (that's happenedn to me)
TTITLE10=my lips are sealed
TTITLE11=i'm gettin' better
TTITLE12=someday (you'll want me to want you)
TTITLE13=four walls/i missed me/he'll have to go/oh-how i miss you tonight (med
TTITLE13=ley)
TTITLE14=i know one
TTITLE15=am i that easy to forget
TTITLE16=that's when i see the blues (in your pretty brown eyes)
TTITLE17=nobody's fool
TTITLE18=i'm beginning to forget you
TTITLE19=two shadows on you window
EXTD=Reader's Digest Music - Disk 1/3
EXTT0=
EXTT1=
EXTT2=
EXTT3=
EXTT4=
EXTT5=
EXTT6=
EXTT7=
EXTT8=
EXTT9=
EXTT10=
EXTT11=
EXTT12=
EXTT13=
EXTT14=
EXTT15=
EXTT16=
EXTT17=
EXTT18=
EXTT19=
PLAYORDER=
